<?xml version="1.0" encoding="UTF-8"?>
<svg width="135px" height="30px" viewBox="0 0 135 30" version="1.1" xmlns="http://www.w3.org/2000/svg" xmlns:xlink="http://www.w3.org/1999/xlink">
    <!-- Generator: Sketch 55.2 (78181) - https://sketchapp.com -->
    <title>bb logo 1</title>
    <desc>Created with Sketch.</desc>
    <g id="Jishnu" stroke="none" stroke-width="1" fill="none" fill-rule="evenodd">
        <g id="Artboard" transform="translate(-179.000000, -254.000000)">
            <g id="bb-logo-1" transform="translate(179.000000, 254.000000)">
                <g id="Group-29">
                    <g id="Group-28">
                        <g id="Group-11" transform="translate(32.727273, 3.818182)">
                            <path d="M9.10036364,16.7727273 C8.57018182,17.6345455 7.84090909,18.0327273 6.846,18.0327273 C6.11727273,18.0327273 5.52054545,17.8336364 5.05636364,17.436 C4.52618182,17.0378182 4.128,16.4416364 3.92945455,15.7783636 C3.66381818,15.1156364 3.53127273,14.4523636 3.53127273,13.6570909 C3.53127273,12.9278182 3.66381818,12.2645455 3.92945455,11.5352727 C4.128,10.8725455 4.52618182,10.3418182 5.05636364,9.94418182 C5.52054545,9.54654545 6.11727273,9.34745455 6.846,9.34745455 C7.50927273,9.34745455 8.04,9.54654545 8.50363636,9.94418182 C8.96781818,10.3418182 9.29945455,10.8725455 9.56454545,11.4692727 C9.76363636,12.1985455 9.89618182,12.9278182 9.89618182,13.7236364 C9.89618182,14.9165455 9.63054545,15.9774545 9.10036364,16.7727273 Z M13.0118182,10.2092727 C12.6141818,9.14890909 11.9514545,8.28709091 11.0896364,7.55781818 C10.2278182,6.89509091 9.16690909,6.56345455 7.97345455,6.56345455 C7.11163636,6.56345455 6.31581818,6.762 5.58654545,7.09363636 C4.79127273,7.42527273 4.19454545,7.88890909 3.79690909,8.55218182 L3.73036364,8.55218182 L3.73036364,0 L0.084,0 L0.084,20.7501818 C0.084,20.7501818 3.39927273,21.1483636 3.53127273,18.9605455 L3.53127273,18.6954545 L3.59781818,18.828 C3.66381818,18.9605455 3.79690909,19.1590909 3.99545455,19.4247273 C4.26109091,19.7558182 4.72472727,20.0209091 5.388,20.3530909 C6.05072727,20.6841818 6.91254545,20.8167273 7.97345455,20.8167273 C9.16690909,20.8167273 10.2278182,20.4856364 11.0896364,19.8223636 C11.9514545,19.1590909 12.6141818,18.2312727 13.0118182,17.1703636 C13.476,16.0434545 13.6750909,14.9165455 13.6750909,13.7236364 C13.6750909,12.5301818 13.476,11.3367273 13.0118182,10.2092727 L13.0118182,10.2092727 Z" id="Fill-1" fill="#D7252C"></path>
                            <path d="M14.6694545,20.8172727 L18.3158182,20.8172727 L18.3158182,6.96109091 L14.6694545,6.96109091 L14.6694545,20.8172727 Z M14.6694545,3.04963636 L18.3158182,3.04963636 L18.3158182,0 L14.6694545,0 L14.6694545,3.04963636 Z" id="Fill-2" fill="#D7252C"></path>
                            <path d="M28.9898182,14.9165455 C28.8572727,15.3807273 28.7241818,15.7783636 28.4590909,16.11 C28.194,16.4416364 27.8629091,16.7067273 27.4647273,16.9058182 C27.0670909,17.1703636 26.6029091,17.2369091 26.0727273,17.2369091 C25.5425455,17.2369091 25.0783636,17.1043636 24.6807273,16.9058182 C24.2825455,16.6401818 24.0174545,16.3085455 23.7523636,15.9109091 C23.5532727,15.5792727 23.3547273,15.1156364 23.2881818,14.6514545 C23.1556364,14.1872727 23.1556364,13.6570909 23.1556364,13.1929091 C23.1556364,12.6627273 23.2216364,12.1985455 23.2881818,11.7343636 C23.4207273,11.2707273 23.6198182,10.8725455 23.8183636,10.5409091 C24.0834545,10.1432727 24.4150909,9.87818182 24.7467273,9.67909091 C25.1443636,9.48054545 25.6085455,9.34745455 26.0727273,9.34745455 C26.6694545,9.34745455 27.1996364,9.48054545 27.5972727,9.67909091 C27.9954545,9.94418182 28.3265455,10.2092727 28.5256364,10.6074545 C28.7907273,11.0050909 28.9238182,11.4692727 29.0558182,11.9334545 C29.1223636,12.3970909 29.1883636,12.9278182 29.1883636,13.524 C29.1883636,13.9881818 29.1223636,14.4523636 28.9898182,14.9165455 Z M29.1883636,8.75072727 L29.1223636,8.75072727 C28.7241818,7.95545455 28.128,7.42527273 27.4647273,7.09363636 C26.802,6.762 26.0727273,6.56345455 25.2109091,6.56345455 C24.2825455,6.56345455 23.4207273,6.762 22.758,7.09363636 C22.0281818,7.49127273 21.432,7.95545455 20.9678182,8.61872727 C20.4370909,9.21490909 20.1054545,9.94418182 19.8409091,10.74 C19.5752727,11.5352727 19.5092727,12.3970909 19.5092727,13.2594545 C19.5092727,14.1872727 19.5752727,15.0490909 19.7743636,15.8449091 C20.0394545,16.7067273 20.3710909,17.436 20.8352727,18.0327273 C21.2989091,18.6294545 21.8961818,19.1590909 22.6249091,19.4912727 C23.2881818,19.8223636 24.15,20.0209091 25.1443636,20.0209091 C25.9401818,20.0209091 26.7354545,19.8889091 27.4647273,19.5572727 C28.194,19.1590909 28.7907273,18.6294545 29.1223636,17.9661818 L29.1883636,17.9661818 L29.1883636,19.6898182 C29.2549091,20.6841818 28.9898182,21.4794545 28.5256364,22.0767273 C28.0614545,22.7394545 27.3321818,23.0045455 26.2712727,23.0045455 C25.6085455,23.0045455 25.0783636,22.872 24.5476364,22.6069091 C24.0834545,22.3418182 23.6858182,21.8776364 23.5532727,21.2149091 L19.9069091,21.2149091 C19.9734545,21.9441818 20.172,22.6069091 20.5701818,23.1370909 C20.9018182,23.6678182 21.3654545,24.132 21.9621818,24.4630909 C22.4923636,24.8612727 23.0890909,25.1263636 23.8183636,25.2589091 C24.4810909,25.4574545 25.1443636,25.524 25.8076364,25.524 C27.3321818,25.524 28.5256364,25.3249091 29.454,24.8612727 C30.3158182,24.4630909 31.0450909,23.9323636 31.5087273,23.3361818 C31.9729091,22.7394545 32.3045455,22.1427273 32.4370909,21.4134545 C32.6361818,20.7501818 32.7021818,20.088 32.7021818,19.5572727 L32.7021818,6.96109091 L32.2385455,6.96109091 C29.3214545,7.02709091 29.1883636,8.75072727 29.1883636,8.75072727 L29.1883636,8.75072727 Z" id="Fill-4" fill="#D7252C"></path>
                            <path d="M102.106909,9.01636364 L102.106909,8.75127273 C101.907818,7.15963636 99.9190909,7.15963636 99.9190909,7.15963636 L99.9190909,-5.68434189e-14 L97.6647273,-5.68434189e-14 L97.6647273,7.15963636 L95.8090909,7.15963636 L95.8090909,9.01636364 L97.6647273,9.01636364 L97.6647273,18.0327273 C97.6647273,19.6238182 98.1289091,20.9498182 100.382727,20.9498182 C100.648364,20.9498182 101.311091,20.8167273 102.106909,20.7501818 L102.106909,18.9605455 L101.311091,18.9605455 C100.847455,18.9605455 99.9190909,18.9605455 99.9190909,17.9001818 L99.9190909,9.01636364 L102.106909,9.01636364" id="Fill-6" fill="#1B1A19"></path>
                            <path d="M83.1458182,7.95545455 C81.8858182,6.62945455 80.3612727,7.82290909 80.0961818,8.08854545 L74.9918182,13.0603636 L74.9918182,-5.68434189e-14 L72.8034545,-5.68434189e-14 L72.8034545,20.9498182 L74.9918182,20.9498182 L74.9918182,15.7783636 L76.914,14.0547273 L81.1570909,20.9498182 L84.0741818,20.9498182 L78.5710909,12.3970909 L83.1458182,7.95545455" id="Fill-7" fill="#1B1A19"></path>
                            <path d="M67.566,12.8612727 L65.3116364,12.2645455 C63.522,11.8003636 62.7921818,11.5352727 62.7921818,10.4749091 C62.7921818,8.75127273 64.848,8.55218182 65.5107273,8.55218182 C67.0358182,8.55218182 67.8316364,8.88381818 68.2287273,9.414 C68.2287273,9.414 69.4887273,10.8725455 70.9467273,10.4083636 C70.8141818,9.28145455 69.9523636,6.56345455 65.7758182,6.56345455 C63.0578182,6.56345455 60.6049091,7.88890909 60.6049091,10.8725455 C60.6049091,12.7287273 61.8643636,13.7236364 63.7870909,14.1872727 L66.4390909,14.85 C68.3612727,15.3141818 69.0905455,15.7123636 69.0905455,16.7727273 C69.0905455,18.2978182 67.632,18.9605455 65.9749091,18.9605455 C62.7921818,18.9605455 62.4610909,17.2369091 62.3950909,16.1765455 L60.1407273,16.1765455 C60.2732727,17.8336364 60.6709091,20.9498182 66.0409091,20.9498182 C69.0905455,20.9498182 71.4109091,19.2256364 71.4109091,16.4416364 C71.4109091,14.5854545 70.4165455,13.524 67.566,12.8612727" id="Fill-8" fill="#1B1A19"></path>
                            <path d="M89.5107273,8.61872727 C92.2947273,8.61872727 93.1565455,10.5414545 93.2890909,12.6627273 L87.654,12.6627273 C87.5874545,12.6627273 87.5214545,12.6627273 87.4549091,12.6627273 C86.5930909,12.7287273 86.0629091,13.1263636 85.7312727,13.524 L85.7312727,12.6627273 C85.7312727,10.5414545 87.3889091,8.61872727 89.5107273,8.61872727 Z M89.7092727,18.9605455 C87.0572727,18.9605455 85.7312727,17.3034545 85.7312727,14.4523636 L95.676,14.4523636 C95.676,9.67909091 93.7532727,6.56345455 89.8418182,6.56345455 C85.3336364,6.56345455 83.2783636,9.87818182 83.2783636,14.1212727 C83.2783636,18.0327273 85.5327273,20.9498182 89.3781818,20.9498182 C91.5654545,20.9498182 92.4272727,20.4190909 93.0905455,19.9549091 C94.8141818,18.828 95.4109091,16.9058182 95.4769091,16.2425455 L93.2225455,16.2425455 C93.0905455,17.3034545 91.8310909,18.9605455 89.7092727,18.9605455 L89.7092727,18.9605455 Z" id="Fill-9" fill="#1B1A19"></path>
                            <path d="M56.1627273,15.8449091 C56.1627273,17.6345455 54.0409091,19.0270909 51.9201818,19.0270909 C50.196,19.0270909 49.4667273,18.1652727 49.4667273,16.6401818 C49.4667273,14.9165455 51.2569091,14.5854545 52.3838182,14.4523636 C55.2349091,14.0547273 55.7650909,13.8556364 56.1627273,13.5905455 L56.1627273,15.8449091 Z M59.2123636,18.9605455 C58.7481818,18.9605455 58.4170909,18.762 58.4170909,18.1652727 L58.4170909,10.3418182 C58.4170909,6.82854545 54.5050909,6.56345455 53.3787273,6.56345455 C50.0634545,6.56345455 47.9421818,7.82290909 47.8096364,10.9390909 C49.0690909,11.1376364 49.8643636,10.4083636 50.196,9.87818182 C50.2625455,9.74563636 50.3290909,9.61309091 50.4610909,9.48054545 C50.8587273,8.88381818 51.588,8.41963636 52.9805455,8.41963636 C55.1683636,8.41963636 56.2292727,9.21490909 56.2292727,10.6734545 C56.2292727,11.9994545 55.566,12.1985455 55.0358182,12.2645455 L51.2569091,12.7287273 C47.4114545,13.1929091 47.0803636,15.8449091 47.0803636,16.9718182 C47.0803636,19.3587273 48.87,20.9498182 51.3894545,20.9498182 C54.0409091,20.9498182 55.3669091,19.6898182 56.2952727,18.6954545 C56.3612727,19.7563636 56.6934545,20.8167273 58.6821818,20.8167273 C59.2123636,20.8167273 59.544,20.6181818 59.9416364,20.5516364 L59.9416364,18.8945455 C59.6765455,18.8945455 59.4114545,18.9605455 59.2123636,18.9605455 L59.2123636,18.9605455 Z" id="Fill-10" fill="#1B1A19"></path>
                            <path d="M40.3838182,18.9605455 C38.9252727,18.9605455 36.6714545,17.9661818 36.6714545,14.3863636 C36.6714545,12.132 37.0690909,8.61872727 40.3178182,8.61872727 C43.8981818,8.61872727 44.0967273,11.9334545 44.0967273,13.7236364 C44.0967273,16.7067273 42.9032727,18.9605455 40.3838182,18.9605455 Z M40.782,6.56345455 C39.1909091,6.56345455 37.7983636,7.22618182 36.87,8.68472727 L36.804,8.68472727 L36.804,-5.68434189e-14 L34.4836364,-5.68434189e-14 L34.4836364,20.5516364 L35.3454545,20.5516364 C36.5383636,20.4856364 36.6714545,19.4247273 36.6714545,19.2256364 L36.6714545,18.828 L36.7374545,18.828 C37.2016364,19.6238182 38.1294545,20.9498182 40.4503636,20.9498182 C45.0910909,20.9498182 46.4170909,16.5741818 46.4170909,13.3254545 C46.4170909,9.48054545 44.3618182,6.56345455 40.782,6.56345455 L40.782,6.56345455 Z" id="Fill-11" fill="#1B1A19"></path>
                        </g>
                        <g id="Group-15" transform="translate(0.000000, 0.248727)">
                            <path d="M4.35981818,-1.77635684e-14 L24.7745455,-1.77635684e-14 C27.1783636,-1.77635684e-14 29.1747273,1.956 29.1747273,4.31945455 L29.1747273,24.7336364 C29.1747273,27.1374545 27.1783636,29.0934545 24.7745455,29.0934545 L4.35981818,29.0934545 C1.956,29.0934545 3.90798505e-14,27.1374545 3.90798505e-14,24.7336364 L3.90798505e-14,4.31945455 C3.90798505e-14,1.956 1.956,-1.77635684e-14 4.35981818,-1.77635684e-14" id="Fill-13" fill="#9CC63D"></path>
                            <path d="M15.2563636,3.64690909 L12.9338182,3.64690909 L12.9338182,9.92127273 C13.7634545,9.91090909 14.5467273,10.1781818 15.2563636,10.6287273 L15.2563636,3.64690909" id="Fill-15" fill="#1B1A19"></path>
                            <path d="M13.5447273,21.2498182 C13.0150909,22.146 12.2410909,22.5534545 11.1818182,22.5534545 C10.4481818,22.5534545 9.83672727,22.35 9.30709091,21.9425455 C8.77745455,21.4941818 8.37,20.9236364 8.12563636,20.2309091 C7.88127273,19.5381818 7.71818182,18.8050909 7.71818182,18.0305455 C7.71818182,17.2565455 7.88127273,16.482 8.12563636,15.7898182 C8.37,15.0970909 8.77745455,14.5265455 9.30709091,14.1190909 C9.83672727,13.6707273 10.4481818,13.4672727 11.1818182,13.4672727 C11.8745455,13.4672727 12.4854545,13.6707273 12.9747273,14.0781818 C13.4230909,14.4856364 13.7890909,15.0561818 14.034,15.7489091 C14.2374545,16.4416364 14.3596364,17.1747273 14.3596364,18.0305455 C14.3596364,19.3347273 14.0743636,20.394 13.5447273,21.2498182 Z M17.6601818,14.4043636 C17.2118182,13.2632727 16.5196364,12.3261818 15.6229091,11.6334545 C14.7267273,10.9407273 13.6669091,10.5741818 12.4036364,10.5741818 C11.5074545,10.5741818 10.6516364,10.7372727 9.87763636,11.1038182 C9.10363636,11.4703636 8.45127273,12 8.00345455,12.6927273 L7.96254545,12.6927273 L7.96254545,3.64690909 L4.13236364,3.64690909 L4.13236364,25.4061818 C4.13236364,25.4061818 7.63690909,25.8136364 7.75854545,23.5718182 L7.75854545,23.2870909 C7.75854545,23.2461818 7.75854545,23.2461818 7.75854545,23.2052727 L7.79945455,23.3683636 C7.88127273,23.5314545 8.00345455,23.7349091 8.20745455,24.0207273 C8.49272727,24.3463636 8.94054545,24.6725455 9.63327273,24.9987273 C10.3669091,25.3243636 11.2630909,25.4465455 12.4036364,25.4465455 C13.6669091,25.4465455 14.7267273,25.1203636 15.6229091,24.4281818 C16.5196364,23.6945455 17.2118182,22.7978182 17.6601818,21.6572727 C18.1085455,20.4752727 18.3529091,19.2529091 18.3529091,18.0305455 C18.3529091,16.7678182 18.1085455,15.5858182 17.6601818,14.4043636 L17.6601818,14.4043636 Z" id="Fill-16" fill="#D7252C"></path>
                            <path d="M24.3496364,14.4043636 C23.1130909,11.2554545 19.6401818,9.648 16.5670909,11.1038182 C16.4285455,11.1692727 16.2943636,11.2401818 16.164,11.3165455 C16.6232727,11.7267273 17.0383636,12.2034545 17.3994545,12.7330909 C17.7790909,12.5994545 18.1909091,12.5356364 18.6403636,12.5356364 C21.5934545,12.5356364 22.47,15.6523636 22.47,18.0349091 C22.47,20.442 21.5334545,23.4845455 18.6403636,23.4845455 C18.1516364,23.4845455 17.7076364,23.4098182 17.3007273,23.2592727 C16.8889091,23.8369091 16.4121818,24.3469091 15.8825455,24.7723636 C16.0167273,24.8476364 16.1634545,24.9234545 16.3227273,24.9987273 C17.0563636,25.3243636 17.9525455,25.4465455 19.0936364,25.4465455 C20.3563636,25.4465455 21.4161818,25.1203636 22.3123636,24.4281818 C23.2085455,23.6945455 23.9012727,22.7978182 24.3496364,21.6572727 C24.798,20.4752727 25.0423636,19.2529091 25.0423636,18.0305455 C25.0423636,16.7678182 24.798,15.5858182 24.3496364,14.4043636" id="Fill-17" fill="#1B1A19"></path>
                        </g>
                    </g>
                </g>
            </g>
        </g>
    </g>
</svg>